<?xml version="1.0" encoding="UTF-8"?> <svg xmlns="http://www.w3.org/2000/svg" width="13" height="15" viewBox="0 0 13 15"><path fill="#637883" d="M7.725 8.083c2.487 0 4.616 1.79 5.068 4.239l.019.075c.226 1.262-.754 2.43-2.035 2.43H2.072c-1.262 0-2.242-1.13-2.034-2.392l.042-.226c.503-2.39 2.597-4.126 5.063-4.126zM3.626 1.357C5.167-.396 7.942-.376 9.458 1.45l.122.157c1.016 1.385.847 3.299-.405 4.496l-.037.038C7.63 7.574 5.257 7.536 3.787 6.067l-.019-.02c-1.225-1.224-1.338-3.164-.282-4.52z"></path></svg> 