<?xml version="1.0" encoding="UTF-8"?> <svg xmlns="http://www.w3.org/2000/svg" xmlns:xlink="http://www.w3.org/1999/xlink" version="1.1" id="Layer_1" x="0px" y="0px" viewBox="0 0 100 100" style="enable-background:new 0 0 100 100;" xml:space="preserve"> <rect style="fill:#E53D2E;" width="100" height="100"></rect> <g> <path style="fill:#FFFFFF;" d="M74,73L74,73L74,73l0-17.6c0-8.6-1.9-15.3-11.9-15.3c-4.8,0-8.1,2.7-9.4,5.2h-0.1v-4.4H43V73h10 V57.1c0-4.2,0.8-8.2,6-8.2c5.1,0,5.2,4.8,5.2,8.5V73H74z"></path> <path style="fill:#FFFFFF;" d="M26.8,40.9h10V73h-10V40.9z"></path> <path style="fill:#FFFFFF;" d="M31.7,24.9c-3.2,0-5.8,2.6-5.8,5.8s2.6,5.8,5.8,5.8s5.8-2.6,5.8-5.8C37.5,27.5,34.9,24.9,31.7,24.9z "></path> </g> </svg> 