<?xml version="1.0" encoding="UTF-8"?> <svg xmlns="http://www.w3.org/2000/svg" xmlns:xlink="http://www.w3.org/1999/xlink" version="1.1" id="Layer_1" x="0px" y="0px" viewBox="0 0 100 100" style="enable-background:new 0 0 100 100;" xml:space="preserve"> <rect style="fill:#E53D2E;" width="100" height="100"></rect> <path style="fill:#FFFFFF;" d="M79.7,37.7c-0.1-3.2-0.6-5.3-1.4-7.2c-0.7-2-1.9-3.8-3.4-5.3c-1.5-1.5-3.3-2.7-5.3-3.4 c-1.9-0.7-4.1-1.2-7.2-1.4c-3.2-0.1-4.2-0.2-12.3-0.2s-9.1,0-12.3,0.2c-3.2,0.1-5.3,0.6-7.2,1.4c-2,0.7-3.8,1.9-5.3,3.4 c-1.5,1.5-2.7,3.3-3.4,5.3c-0.7,1.9-1.2,4.1-1.4,7.2c-0.1,3.2-0.2,4.2-0.2,12.3s0,9.1,0.2,12.3c0.1,3.2,0.6,5.3,1.4,7.2 c0.7,2,1.9,3.8,3.4,5.3c1.5,1.5,3.3,2.7,5.3,3.4c1.9,0.7,4.1,1.2,7.2,1.4c3.2,0.1,4.2,0.2,12.3,0.2c8.1,0,9.1,0,12.3-0.2 c3.2-0.1,5.3-0.6,7.2-1.4c4-1.6,7.2-4.7,8.7-8.7c0.7-1.9,1.2-4.1,1.4-7.2c0.1-3.2,0.2-4.2,0.2-12.3S79.8,40.9,79.7,37.7z M74.3,62.1 c-0.1,2.9-0.6,4.5-1,5.5c-1,2.6-3.1,4.7-5.7,5.7c-1.1,0.4-2.6,0.9-5.5,1c-3.1,0.1-4.1,0.2-12.1,0.2c-8,0-8.9,0-12.1-0.2 c-2.9-0.1-4.5-0.6-5.5-1C31.1,72.8,29.9,72,29,71c-1-1-1.8-2.1-2.2-3.4c-0.4-1.1-0.9-2.6-1-5.5c-0.1-3.1-0.2-4.1-0.2-12.1 c0-8,0-8.9,0.2-12.1c0.1-2.9,0.6-4.5,1-5.5c0.5-1.3,1.2-2.5,2.2-3.4c1-1,2.1-1.8,3.4-2.2c1.1-0.4,2.6-0.9,5.5-1 c3.1-0.1,4.1-0.2,12.1-0.2c8,0,8.9,0,12.1,0.2c2.9,0.1,4.5,0.6,5.5,1c1.3,0.5,2.5,1.2,3.4,2.2c1,1,1.8,2.1,2.2,3.4 c0.4,1.1,0.9,2.6,1,5.5c0.1,3.1,0.2,4.1,0.2,12.1C74.5,58,74.4,58.9,74.3,62.1z"></path> <g> <path style="fill:#FFFFFF;" d="M50,34.7c-8.5,0-15.3,6.9-15.3,15.3S41.5,65.3,50,65.3c8.5,0,15.3-6.9,15.3-15.3S58.5,34.7,50,34.7z M50,59.9c-5.5,0-9.9-4.5-9.9-9.9s4.5-9.9,9.9-9.9s9.9,4.5,9.9,9.9S55.5,59.9,50,59.9z"></path> <path style="fill:#FFFFFF;" d="M65.9,30.5c-2,0-3.6,1.6-3.6,3.6s1.6,3.6,3.6,3.6c2,0,3.6-1.6,3.6-3.6 C69.5,32.1,67.9,30.5,65.9,30.5z"></path> </g> </svg> 