<?xml version="1.0" encoding="UTF-8"?> <svg xmlns="http://www.w3.org/2000/svg" xmlns:xlink="http://www.w3.org/1999/xlink" version="1.1" id="Layer_1" x="0px" y="0px" viewBox="0 0 100 100" style="enable-background:new 0 0 100 100;" xml:space="preserve"> <rect style="fill:#E53D2E;" width="100" height="100"></rect> <path style="fill:#FFFFFF;" d="M78.2,35.8c-0.7-2.5-2.7-4.5-5.2-5.2c-4.6-1.3-23-1.3-23-1.3s-18.4,0-23,1.2 c-2.5,0.7-4.5,2.7-5.2,5.2C20.6,40.5,20.6,50,20.6,50s0,9.6,1.2,14.2c0.7,2.5,2.7,4.5,5.2,5.2c4.7,1.3,23,1.3,23,1.3s18.4,0,23-1.2 c2.5-0.7,4.5-2.7,5.2-5.2c1.2-4.6,1.2-14.2,1.2-14.2S79.5,40.5,78.2,35.8z M44.1,58.8V41.2L59.5,50L44.1,58.8z"></path> </svg> 