<svg xmlns="http://www.w3.org/2000/svg" width="12" height="12" viewBox="0 0 12 12">
    <path fill="#758290" d="M11.94 10.167v-8.19l.003-.426c0-.57-.315-1.117-.831-1.375-.22-.11-.457-.166-.703-.166-.043 0-.086.003-.13.003H1.604c-.036 0-.071-.003-.108-.003C1.117.02.756.172.483.432c-.322.306-.47.724-.47 1.16v8.67l-.003.142c0 .225.047.44.137.645.241.547.807.891 1.399.892l.406-.002h8.48c.377-.005.736-.145 1.016-.396.282-.254.444-.607.487-.98.014-.13.005-.265.005-.396zm-2.864-3.88c0 .291-.239.507-.521.52-.282.013-.521-.248-.521-.52V4.658l-1.031 1.03-1.49 1.488-1.23 1.23-.29.29-.096.096c-.043.043-.086.085-.127.128-.206.208-.53.191-.737 0l-.01-.01-.022-.023-.01-.012-.001-.001-.007-.01h-.001c0-.003-.004-.007-.007-.01h-.001-.001-.002v-.002-.001-.003-.003c-.002-.002-.002-.004 0-.005V8.84v-.001l-.007-.003c-.002 0-.002-.001-.003-.003l-.001-.001-.003-.004v-.002l-.01-.014-.006-.01c0-.004-.003-.008-.005-.012l-.002-.004c-.002 0-.002-.002-.003-.003H2.93V8.78c0-.002-.003-.004-.004-.006 0 0 0-.002-.002-.002v-.005l-.003-.004-.003-.006-.001-.008v-.004c0-.006-.003-.012-.006-.017l-.003-.009-.004-.01c-.008-.026-.015-.056-.017-.085-.002-.008-.002-.017-.003-.025-.01-.15.042-.307.149-.414l.007-.009c.206-.21.417-.417.625-.625l1.287-1.286 1.488-1.49c.284-.284.57-.568.853-.854H5.665c-.291 0-.507-.238-.52-.521-.013-.281.248-.52.52-.52H8.55c.114 0 .22.04.306.103l.004.004.003.002h.003c0 .002.003.003.005.005.017.012.034.026.05.04.024.024.046.048.066.076l.007.011.01.013.02.038c.02.04.033.082.038.126.003.015.004.03.005.043.004.02.008.04.008.06v2.884h.002z"/>
</svg>
