<?xml version="1.0" encoding="UTF-8"?>
<svg width="20px" height="20px" viewBox="0 0 20 20" version="1.1" xmlns="http://www.w3.org/2000/svg" xmlns:xlink="http://www.w3.org/1999/xlink">
    <title>Number-red</title>
    <g id="Symbols" stroke="none" stroke-width="1" fill="none" fill-rule="evenodd">
        <g id="Numbers" fill-rule="nonzero">
            <g id="Number-red">
                <path d="M10,0 C4.48607615,0 0,4.48607615 0,10 C0,15.5139239 4.48607615,20 10,20 C15.5139239,20 20,15.5139239 20,10 C20,4.48607615 15.5139239,0 10,0 Z" id="Path" fill="#E53D2E"></path>
                <path d="M10.092559,14.5 C10.4482759,14.5 10.7985481,14.4457105 11.1433757,14.3371314 C11.4882033,14.2285523 11.7985481,14.0636729 12.0744102,13.8424933 C12.3502722,13.6213137 12.5735027,13.3398123 12.7441016,12.9979893 C12.9147005,12.6561662 13,12.2520107 13,11.7855228 C13,11.5442359 12.9637024,11.3170241 12.8911071,11.1038874 C12.8185118,10.8907507 12.7168784,10.6977212 12.5862069,10.5247989 C12.4555354,10.3518767 12.2994555,10.2030831 12.1179673,10.0784182 C11.9364791,9.95375335 11.7368421,9.86327078 11.5190563,9.80697051 L11.5190563,9.80697051 L11.5190563,9.77077748 C11.8965517,9.65817694 12.2068966,9.43900804 12.4500907,9.11327078 C12.6932849,8.78753351 12.814882,8.38739946 12.814882,7.91286863 C12.814882,7.50268097 12.7368421,7.14678284 12.5807623,6.84517426 C12.4246824,6.54356568 12.2196007,6.2922252 11.9655172,6.09115282 C11.7114338,5.89008043 11.4228675,5.74128686 11.0998185,5.64477212 C10.7767695,5.54825737 10.4446461,5.5 10.1034483,5.5 C9.78402904,5.5 9.47186933,5.54624665 9.16696915,5.63873995 C8.86206897,5.73123324 8.58076225,5.86796247 8.323049,6.04892761 C8.06533575,6.22989276 7.84210526,6.45509383 7.65335753,6.72453083 C7.4646098,6.99396783 7.323049,7.30965147 7.22867514,7.67158177 L7.22867514,7.67158177 L8.92740472,8.10589812 C8.98548094,7.81635389 9.1107078,7.58512064 9.3030853,7.41219839 C9.49546279,7.23927614 9.72232305,7.15281501 9.98366606,7.15281501 C10.2377495,7.15281501 10.4627949,7.23324397 10.6588022,7.39410188 C10.8548094,7.55495979 10.9528131,7.78820375 10.9528131,8.09383378 C10.9528131,8.30294906 10.9147005,8.47184987 10.8384755,8.60053619 C10.7622505,8.72922252 10.6606171,8.83176944 10.5335753,8.90817694 C10.4065336,8.98458445 10.2631579,9.03686327 10.1034483,9.0650134 C9.94373866,9.09316354 9.77676951,9.10723861 9.60254083,9.10723861 L9.60254083,9.10723861 L9.06896552,9.10723861 L9.06896552,10.5911528 L9.55898367,10.5911528 C9.7477314,10.5911528 9.93647913,10.6092493 10.1252269,10.6454424 C10.3139746,10.6816354 10.4827586,10.7419571 10.6315789,10.8264075 C10.7803993,10.9108579 10.9001815,11.0254692 10.9909256,11.1702413 C11.0816697,11.3150134 11.1270417,11.4959786 11.1270417,11.7131367 C11.1270417,11.9142091 11.092559,12.0831099 11.0235935,12.2198391 C10.9546279,12.3565684 10.8675136,12.4671582 10.7622505,12.5516086 C10.6569873,12.636059 10.5372051,12.6983914 10.4029038,12.7386059 C10.2686025,12.7788204 10.1361162,12.7989276 10.0054446,12.7989276 C9.6569873,12.7989276 9.37023593,12.6923592 9.14519056,12.4792225 C8.92014519,12.2660858 8.77132486,12.0187668 8.69872958,11.7372654 L8.69872958,11.7372654 L7,12.2319035 C7.10163339,12.6340483 7.25408348,12.977882 7.45735027,13.2634048 C7.66061706,13.5489276 7.89836661,13.7821716 8.17059891,13.9631367 C8.44283122,14.1441019 8.74410163,14.2788204 9.07441016,14.3672922 C9.40471869,14.4557641 9.74410163,14.5 10.092559,14.5 Z" id="3" fill="#FFFFFF"></path>
            </g>
        </g>
    </g>
</svg>