<svg xmlns="http://www.w3.org/2000/svg" width="25" height="25" viewBox="0 0 25 25">
    <path fill="#3F3F41" d="M4.48.417c.806-.547 1.926-.26 2.395.625l2.578 5.026c.39.703.182 1.588-.443 2.083L6.667 9.974c.937 1.745 1.849 3.151 3.541 4.844 1.589 1.588 2.97 2.526 4.766 3.49l1.849-2.37c.495-.626 1.38-.808 2.083-.443l5.052 2.604c.86.443 1.172 1.536.625 2.37L22.5 23.724c-.495.755-1.354 1.198-2.266 1.146-.937-.078-2.083-.183-2.89-.39-3.594-.938-7.318-3.178-10.469-6.355C3.724 14.974 1.485 11.25.547 7.656.339 6.85.208 5.703.157 4.792.103 3.906.52 3.047 1.25 2.552zm9.4 4.4c1.693 0 3.281.652 4.48 1.85 1.197 1.198 1.848 2.786 1.848 4.479 0 .65-.52 1.172-1.172 1.172-.65 0-1.171-.521-1.171-1.172 0-1.068-.417-2.057-1.172-2.813-.756-.755-1.745-1.172-2.813-1.172-.65 0-1.172-.52-1.172-1.171s.521-1.172 1.172-1.172zm0-4.505c2.89 0 5.6 1.146 7.656 3.126 2.032 2.03 3.178 4.817 3.151 7.656 0 .65-.52 1.172-1.171 1.172l-.129-.007c-.59-.063-1.043-.558-1.043-1.165 0-2.214-.886-4.375-2.474-5.964-1.615-1.588-3.724-2.474-5.99-2.474-.65 0-1.172-.52-1.172-1.172 0-.65.521-1.171 1.172-1.171z"/>
</svg>
