<svg xmlns="http://www.w3.org/2000/svg" width="16" height="15" viewBox="0 0 16 15">
    <g fill="#637883">
        <path d="M14.582 12.879c.898-.964 1.388-2.155 1.388-3.397 0-1.553-.768-2.96-1.996-3.958-.029 3.56-3.375 6.453-7.486 6.453H3.706c1.076 1.775 3.262 2.995 5.776 2.995h5.989c.202 0 .383-.122.461-.31.078-.186.035-.402-.109-.542l-1.241-1.241z"/>
        <path d="M6.488 0c3.578 0 6.487 2.462 6.487 5.49 0 3.029-2.91 5.49-6.487 5.49H.5c-.203 0-.384-.122-.462-.31-.078-.183-.034-.399.11-.542l1.24-1.241C.49 7.92.002 6.73.002 5.49 0 2.462 2.91 0 6.488 0zM7.49 5.99h-4c-.275 0-.5.224-.5.5 0 .274.225.5.5.5h4c.275 0 .5-.226.5-.5 0-.276-.225-.5-.5-.5zm1.992-1.997H3.494c-.274 0-.499.225-.499.499 0 .275.225.5.499.5h5.988c.275 0 .5-.225.5-.5 0-.274-.225-.499-.5-.499z"/>
    </g>
</svg>
