<?xml version="1.0" encoding="UTF-8"?>
<svg width="20px" height="20px" viewBox="0 0 20 20" version="1.1" xmlns="http://www.w3.org/2000/svg" xmlns:xlink="http://www.w3.org/1999/xlink">
    <title>Number-red</title>
    <g id="Symbols" stroke="none" stroke-width="1" fill="none" fill-rule="evenodd">
        <g id="Numbers" fill-rule="nonzero">
            <g id="Number-red">
                <path d="M10,0 C4.48607615,0 0,4.48607615 0,10 C0,15.5139239 4.48607615,20 10,20 C15.5139239,20 20,15.5139239 20,10 C20,4.48607615 15.5139239,0 10,0 Z" id="Path" fill="#E53D2E"></path>
                <path d="M13,14 L13,12.3933975 L9.70967742,12.3933975 L11.5768501,10.786795 C11.7590133,10.6254012 11.9354839,10.4621733 12.1062619,10.2971114 C12.2770398,10.1320495 12.4288425,9.95414947 12.5616698,9.76341128 C12.6944972,9.57267309 12.7988615,9.3654287 12.8747628,9.14167813 C12.9506641,8.91792756 12.9886148,8.66666667 12.9886148,8.38789546 C12.9886148,7.98441082 12.9070209,7.63227877 12.743833,7.33149931 C12.5806452,7.03071985 12.3624288,6.78129298 12.0891841,6.58321871 C11.8159393,6.38514443 11.5047438,6.23842274 11.1555977,6.14305365 C10.8064516,6.04768455 10.4459203,6 10.0740038,6 C9.67931689,6 9.30550285,6.05685465 8.95256167,6.17056396 C8.59962049,6.28427327 8.28652751,6.44933517 8.01328273,6.66574966 C7.74003795,6.88216414 7.5142315,7.14442916 7.33586338,7.4525447 C7.15749526,7.76066025 7.0455408,8.1127923 7,8.50894085 L7,8.50894085 L8.83301708,8.75103164 C8.87096774,8.39889959 8.99051233,8.11462632 9.19165085,7.89821183 C9.39278937,7.68179734 9.65275142,7.5735901 9.971537,7.5735901 C10.2751423,7.5735901 10.5180266,7.65978909 10.7001898,7.83218707 C10.8823529,8.00458505 10.9734345,8.23016965 10.9734345,8.50894085 C10.9734345,8.74369555 10.9127135,8.956442 10.7912713,9.14718019 C10.6698292,9.33791839 10.5104364,9.52498854 10.313093,9.70839065 L10.313093,9.70839065 L7.17077799,12.4594223 L7.17077799,14 L13,14 Z" id="2" fill="#FFFFFF"></path>
            </g>
        </g>
    </g>
</svg>