<svg xmlns="http://www.w3.org/2000/svg" width="15" height="19" viewBox="0 0 15 19">
    <g fill="#637883">
        <path d="M12.188 0H8.556c-.518 0-.937.42-.937.938 0 .517.42.937.937.937h3.632c.517 0 .937.42.937.938V16.18c0 .518-.42.938-.938.938h-3.63c-.519 0-.938.42-.938.937 0 .518.42.938.937.938h3.632c1.553 0 2.812-1.26 2.812-2.813V2.812C15 1.26 13.74 0 12.187 0z"/>
        <path d="M.938 10.434h6.375L4.788 13.16c-.353.38-.33.973.05 1.325s.972.33 1.325-.05l4-4.312.043-.056c.016-.02.038-.047.056-.072.018-.028.033-.056.047-.085 0-.025.025-.046.038-.075.012-.033.023-.068.031-.103 0-.022 0-.047.019-.069.012-.057.018-.116.019-.175-.001-.058-.007-.117-.02-.175 0-.024 0-.046-.018-.068-.008-.035-.019-.07-.031-.103 0-.025-.025-.05-.038-.075-.014-.03-.03-.057-.046-.085-.016-.025-.038-.047-.057-.072-.018-.025-.028-.04-.043-.056L6.175 4.56c-.228-.245-.57-.35-.896-.276-.326.074-.589.317-.687.637-.1.32-.02.669.208.914L7.325 8.56H.938c-.335 0-.645.18-.812.47-.168.29-.168.647 0 .937.167.29.477.468.812.468z"/>
    </g>
</svg>
