<svg xmlns="http://www.w3.org/2000/svg" width="20" height="20" viewBox="0 0 20 20">
    <path fill="#E53D2E" d="M3.583.333C4.23-.104 5.125.125 5.5.833l2.063 4.021c.312.563.145 1.271-.355 1.667L5.333 7.979c.75 1.396 1.48 2.521 2.834 3.875 1.27 1.271 2.375 2.021 3.812 2.792l1.48-1.896c.395-.5 1.104-.646 1.666-.354l4.042 2.083c.687.354.937 1.23.5 1.896L18 18.979c-.396.604-1.083.959-1.813.917-.75-.063-1.666-.146-2.312-.313C11 18.833 8.021 17.042 5.5 14.5 2.98 11.98 1.187 9 .437 6.125.271 5.479.167 4.562.126 3.833.083 3.125.417 2.437 1 2.042zm7.521 3.521c1.354 0 2.625.521 3.584 1.48.958.958 1.479 2.229 1.479 3.583 0 .52-.417.937-.938.937-.52 0-.937-.416-.937-.937 0-.854-.334-1.646-.938-2.25-.604-.604-1.396-.938-2.25-.938-.52 0-.937-.417-.937-.937 0-.521.416-.938.937-.938zm0-3.604c2.313 0 4.48.917 6.125 2.5 1.625 1.625 2.542 3.854 2.521 6.125 0 .52-.417.938-.938.938-.52 0-.937-.417-.937-.938 0-1.77-.708-3.5-1.98-4.77-1.29-1.272-2.978-1.98-4.79-1.98-.522 0-.938-.417-.938-.938 0-.52.416-.937.937-.937z"/>
</svg>
