<svg xmlns="http://www.w3.org/2000/svg" width="13" height="13" viewBox="0 0 13 13">
    <path fill="#758290" d="M2.33.217C2.748-.068 3.33.08 3.574.542l1.34 2.613c.204.366.095.826-.23 1.084l-1.218.947c.487.908.961 1.639 1.841 2.52.826.825 1.544 1.313 2.478 1.814l.962-1.232c.257-.325.718-.42 1.083-.23l2.627 1.353c.447.23.61.8.325 1.233L11.7 12.336c-.257.393-.704.623-1.178.596-.488-.04-1.083-.095-1.503-.203-1.869-.487-3.805-1.652-5.444-3.304C1.936 7.786.772 5.85.285 3.981.175 3.561.107 2.966.08 2.491c-.027-.46.19-.907.569-1.164zm4.888 2.288c.88 0 1.706.339 2.329.962.623.623.961 1.449.961 2.329 0 .338-.27.61-.609.61-.339 0-.61-.272-.61-.61 0-.555-.216-1.07-.609-1.463-.393-.392-.907-.609-1.462-.609-.339 0-.61-.27-.61-.61 0-.338.271-.609.61-.609zm0-2.342c1.503 0 2.911.595 3.981 1.625 1.056 1.056 1.652 2.505 1.639 3.98 0 .34-.271.61-.61.61-.338 0-.61-.27-.61-.61 0-1.15-.46-2.274-1.286-3.1-.84-.826-1.936-1.287-3.114-1.287-.339 0-.61-.27-.61-.61 0-.338.271-.609.61-.609z"/>
</svg>
