<svg xmlns="http://www.w3.org/2000/svg" width="20" height="15" viewBox="0 0 20 15">
    <path fill="#E53D2E" d="M13.53 8.097l5.968 5.638c-.408.5-1.028.82-1.72.82H2.222c-.692 0-1.312-.32-1.72-.82l5.969-5.638 1.532 1.447c.55.52 1.274.78 1.997.78.723 0 1.446-.26 1.997-.78l1.532-1.447zm6.444-6.086c.015.106.026.213.026.322v10c0 .11-.01.217-.026.323l-5.636-5.323zm-19.948 0l5.635 5.322-5.635 5.323C.011 12.55 0 12.443 0 12.333v-10c0-.11.01-.217.026-.322zM17.778.11c.692 0 1.312.32 1.72.82l-8.264 7.805c-.669.632-1.8.632-2.468 0L.502.932c.408-.5 1.028-.82 1.72-.82z"/>
</svg>
