<svg xmlns="http://www.w3.org/2000/svg" width="16" height="11" viewBox="0 0 16 11">
    <path fill="#FFF" fill-rule="evenodd" d="M14.876 8.685c-.362-.349-1.009-.504-1.913-.478 0 0-.362.039-.66.052-.193.013-.726-.187-2.38-1.324C7.75 5.45 6.728 3.416 6.655.38 6.65.188 6.533.01 6.308.01c-.226 0-4.328-.028-4.496.01-.168.04-.268.22-.23.388C2.087 2.62.127 7.956.114 8.008c-.22.659-.116 1.37.284 1.938.272.375.647.673 1.073.84.272.104.556.156.84.156.543 0 1.047-.155 1.538-.31.22-.065.453-.143.672-.194 1.099-.259 2.236-.013 3.322.22.194.038.375.077.569.116.749.155 1.37.22 2.08.22.44 0 .585-.047 1.128-.099.271-.026.568-.064.93-.116h.09c.712.052 1.707.052 2.237-.491.258-.259.362-.62.297-1.034-.034-.224-.134-.414-.297-.569z"/>
</svg>
