<svg width="60" height="60" viewBox="0 0 60 60" fill="none" xmlns="http://www.w3.org/2000/svg">
<circle cx="30" cy="30" r="29.75" fill="#F3E3E1" stroke="#E53D2E" stroke-width="0.5"/>
<g clip-path="url(#clip0_1724_120)">
<path d="M15.512 29.3659C15.6676 32.1116 16.8344 34.7361 18.8569 36.8358L17.5345 42.9328C17.4567 43.2155 17.5734 43.5385 17.8067 43.7404C17.9623 43.8615 18.1179 43.9423 18.3124 43.9423C18.429 43.9423 18.5068 43.9423 18.6235 43.8615L25.9745 40.7121C27.4913 41.0755 29.0471 41.1966 30.6418 41.1158C34.4923 40.9139 38.0316 39.42 40.6375 36.9569C43.2823 34.4535 44.6436 31.1829 44.488 27.8315C44.3324 24.4398 42.6211 21.3711 39.7429 19.1503C36.9037 16.9695 33.2088 15.8797 29.3971 16.0816C25.5466 16.2835 22.0073 17.7774 19.4014 20.2405C16.7177 22.7436 15.3564 25.9741 15.512 29.3659Z" fill="#E53D2E"/>
<circle cx="23.3618" cy="28.5913" r="2.09613" fill="white"/>
<circle cx="30.0004" cy="28.5913" r="2.09613" fill="white"/>
<circle cx="36.6371" cy="28.5913" r="2.09613" fill="white"/>
</g>
<defs>
<clipPath id="clip0_1724_120">
<rect width="29" height="27.8846" fill="white" transform="translate(15.5 16.0577)"/>
</clipPath>
</defs>
</svg>
