<svg xmlns="http://www.w3.org/2000/svg" width="21" height="19" fill="none" xmlns:v="https://vecta.io/nano"><mask id="A" maskUnits="userSpaceOnUse" x="0" y="0" width="21" height="19"><path fill-rule="evenodd" d="M0 .343h20.895v18.148H0V.343z" fill="#fff"/></mask><g mask="url(#A)"><path fill-rule="evenodd" d="M6.431 11.782l-2.323-3.33c-.77-1.104-4.78 1.694-4.01 2.797l4.323 6.198c.769 1.103 2.3 1.376 3.404.607a2.43 2.43 0 0 0 .732-.816l.002.001.01-.021c.055-.103.104-.209.145-.317.89-1.915 5.6-11.588 12.181-16.558 0 0-8.286.21-14.464 11.44v-.001z" fill="#E03C31"/></g></svg>